Simulation
nRows=15
nColumns=15
endheader
time  TH_x TH_y TH_z SC_y  SC_z  SC_x  AC_y  AC_z  AC_x  GH_y  GH_z  GH_yy  EL_x  PS_y
0.0  0.000000  0.000000  0.000000  -24.330040837720908  0.008873340293573345  -2.384386694777681  55.187009702575345  3.9099542952950603  -0.15360527602797933  59.85165164384086  0.2790207020432578  -18.2068560313385  20.998346728426334  120.000000
0.04016479400749064  0.000000  0.000000  0.000000  -24.382386832063318  0.0429491334060514  -2.4110334803520255  55.16568324434989  3.9809751337356656  -0.12565416727979328  42.387638499225964  0.3924534210884352  -0.8264286794263659  20.394679850773425  120.000000
0.08032958801498127  0.000000  0.000000  0.000000  -24.54281333806834  0.1572790429226212  -2.4749433153621068  55.09624224143676  4.178793147246755  -0.056052757830513326  23.74831098670856  0.8036468251169296  17.556426270268553  19.836140854786446  120.000000
0.12049438202247191  0.000000  0.000000  0.000000  -24.817470345699853  0.36301533010009157  -2.5551785429151783  54.9649987339214  4.473034410444945  0.034419840449392586  15.071297984536477  1.5121408462085788  25.793779614491473  19.29695060648337  120.000000
0.16065917602996255  0.000000  0.000000  0.000000  -25.211810747073557  0.6556176973719904  -2.644514514668239  54.76221567022676  4.833270951164699  0.13702204493177395  10.478547563937584  2.4747314892593697  29.7557840469251  18.754950047381886  120.000000
0.20082397003745317  0.000000  0.000000  0.000000  -25.727813324653365  1.0276381339618803  -2.7391228578287996  54.488909183588305  5.233863432035269  0.2502583624006109  7.5451663525497805  3.6548643592909706  31.863540394249885  18.19621682697745  120.000000
0.24098876404494382  0.000000  0.000000  0.000000  -26.362643554020003  1.470873791091929  -2.8334281085238535  54.15377401519308  5.656635794770765  0.3767295848940186  5.405093873561804  5.021885415539108  32.98441334143475  17.61540327921319  120.000000
0.28115355805243447  0.000000  0.000000  0.000000  -27.109809815502373  1.9776865069174978  -2.9179986252483228  53.772200632721656  6.089527802065969  0.5198595840998168  3.7061742025219733  6.550370253054374  33.47637408322623  17.013024402441182  120.000000
0.3213183520599251  0.000000  0.000000  0.000000  -27.959070914649548  2.541656452119913  -2.9791066491026696  53.36307863933822  6.52478484682834  0.6824892080168391  2.2719971193861177  8.218594584226006  33.52647862483335  16.39522398709214  120.000000
0.3614831460674157  0.000000  0.000000  0.000000  -28.89726812496731  3.156969811224421  -2.999048719339569  52.946778792352966  6.957408392858711  0.8659501662337508  0.9982677332811472  10.007556373458247  33.25410843739222  15.770801367304983  120.000000
0.40164794007490634  0.000000  0.000000  0.000000  -29.908828134172836  3.8182591362036544  -2.9569630971320615  52.54304023812602  7.384312800095918  1.0701445423716633  -0.18567701427395825  11.9000855236074  32.74928657067783  15.150251650825282  120.000000
0.441812734082397  0.000000  0.000000  0.000000  -30.977354205787016  4.520205861260209  -2.830463533947328  52.16873424067065  7.803509706531341  1.2942109792576622  -1.3344829702666459  13.879697832025986  32.08972242383927  14.543549880322846  120.000000
0.48197752808988764  0.000000  0.000000  0.000000  -32.08734677719394  5.257697074879255  -2.5979686357464065  51.83699409390961  8.21348930972023  1.5357705656600107  -2.492108182693209  15.929885706967122  31.34544612847813  13.95877580972934  120.000000
0.5221423220973783  0.000000  0.000000  0.000000  -33.22446461280954  6.025385154330313  -2.2447524082429573  51.55643825590963  8.616696767654112  1.7949076485287514  -3.6914235447465966  18.033750788573556  30.577510660955287  13.401590862377814  120.000000
0.5623071161048689  0.000000  0.000000  0.000000  -34.37422149356212  6.817159873572478  -1.7657304947392054  51.33302068573046  9.020997464213085  2.0773207604176527  -4.946092482312401  20.1743249353795  29.829066580016693  12.87516760463029  120.000000
